<svg width="61" height="60" viewBox="0 0 61 60" fill="none" xmlns="http://www.w3.org/2000/svg">
<path d="M8.36802 9.80005V50.3C3.46802 44.9 0.468018 37.8 0.468018 30C0.468018 22.2 3.46802 15.1 8.36802 9.80005Z" fill="white"/>
<path d="M11.5681 14.2L28.8681 48.9H11.5681V14.2Z" fill="white"/>
<path d="M30.468 45.0001L13.468 11.1001H47.468L30.468 45.0001Z" fill="white"/>
<path d="M30.4681 0C38.2681 0 45.3681 3 50.6681 7.9H10.2681C15.5681 3 22.6681 0 30.4681 0Z" fill="white"/>
<path d="M49.3681 48.9H32.0681L49.3681 14.2V48.9Z" fill="white"/>
<path d="M50.6681 52.1001C45.3681 57.0001 38.2681 60.0001 30.4681 60.0001C22.6681 60.0001 15.5681 57.0001 10.2681 52.1001H50.6681Z" fill="white"/>
<path d="M52.5681 50.2001V9.80005C57.4681 15.1 60.4681 22.2 60.4681 30C60.4681 37.8 57.4681 44.9001 52.5681 50.2001Z" fill="white"/>
<path d="M11.5681 14.2002L28.8681 48.9002H11.5681V14.2002Z" fill="white"/>
<path d="M30.468 45.0001L13.468 11.1001H47.468L30.468 45.0001Z" fill="white"/>
<path d="M32.0681 48.9002L49.3681 14.2002V48.9002H32.0681Z" fill="white"/>
<path d="M13.468 11.1001H47.468L30.468 45.0001L13.468 11.1001Z" fill="white"/>
</svg>
