<svg width="61" height="60" viewBox="0 0 61 60" fill="none" xmlns="http://www.w3.org/2000/svg">
<path d="M30.9783 1.80018C34.7857 1.80018 38.476 2.54725 41.9594 4.0144C43.6335 4.72547 45.2447 5.59856 46.7479 6.61566C48.242 7.62376 49.6461 8.78488 50.9243 10.063C52.2024 11.3411 53.3635 12.7453 54.3716 14.2394C55.3887 15.7426 56.2618 17.3627 56.9729 19.0279C58.44 22.5023 59.1871 26.1926 59.1871 30.009C59.1871 33.8254 58.44 37.5068 56.9729 40.9901C56.2618 42.6643 55.3887 44.2754 54.3716 45.7786C53.3635 47.2727 52.2024 48.6769 50.9243 49.955C49.6461 51.2331 48.242 52.3942 46.7479 53.4023C45.2447 54.4194 43.6245 55.2925 41.9594 56.0036C38.485 57.4707 34.7947 58.2178 30.9783 58.2178C27.1709 58.2178 23.4805 57.4707 19.9972 56.0036C18.323 55.2925 16.7118 54.4194 15.2087 53.4023C13.7145 52.3942 12.3104 51.2331 11.0323 49.955C9.75415 48.6769 8.59303 47.2727 7.58493 45.7786C6.56783 44.2754 5.69474 42.6553 4.98367 40.9901C3.52553 37.5068 2.77845 33.8074 2.77845 30C2.77845 26.1926 3.52553 22.5023 4.99267 19.0189C5.70374 17.3447 6.57683 15.7336 7.59393 14.2304C8.60203 12.7363 9.76315 11.3321 11.0413 10.054C12.3194 8.77588 13.7235 7.61476 15.2177 6.60666C16.7208 5.58956 18.341 4.71647 20.0062 4.0054C23.4805 2.54725 27.1709 1.80018 30.9783 1.80018ZM30.9783 0C14.4076 0 0.978271 13.4293 0.978271 30C0.978271 46.5707 14.4076 60 30.9783 60C47.5489 60 60.9783 46.5707 60.9783 30C60.9873 13.4293 47.5489 0 30.9783 0Z" fill="white"/>
<path d="M5.98218 29.9984C5.98218 39.8904 11.7338 48.4503 20.0776 52.5007L8.1514 19.8274C6.75626 22.9327 5.98218 26.3801 5.98218 29.9984ZM47.8634 28.7383C47.8634 25.651 46.7563 23.5088 45.8022 21.8436C44.5331 19.7824 43.3449 18.0362 43.3449 15.984C43.3449 13.6888 45.0911 11.5466 47.5394 11.5466C47.6474 11.5466 47.7554 11.5556 47.8634 11.5646C43.4169 7.48718 37.4853 5.00293 30.9777 5.00293C22.2468 5.00293 14.56 9.48538 10.0866 16.2721C10.6716 16.2901 11.2297 16.2991 11.6978 16.2991C14.308 16.2991 18.3584 15.984 18.3584 15.984C19.7086 15.903 19.8616 17.8832 18.5204 18.0452C18.5204 18.0452 17.1613 18.2073 15.6582 18.2793L24.7671 45.363L30.2396 28.9543L26.3422 18.2793C24.9921 18.1983 23.723 18.0452 23.723 18.0452C22.3728 17.9642 22.5348 15.903 23.885 15.984C23.885 15.984 28.0164 16.2991 30.4736 16.2991C33.0839 16.2991 37.1343 15.984 37.1343 15.984C38.4844 15.903 38.6375 17.8832 37.2963 18.0452C37.2963 18.0452 35.9372 18.2073 34.434 18.2793L43.4619 45.156L46.0452 36.9831C47.1883 33.4098 47.8634 30.8805 47.8634 28.7383ZM31.4187 32.1857L23.912 53.9859C26.1532 54.6429 28.5204 55.003 30.9777 55.003C33.885 55.003 36.6843 54.4989 39.2765 53.5898C39.2135 53.4818 39.1505 53.3648 39.0965 53.2478L31.4187 32.1857ZM52.9219 18.0092C53.0299 18.8013 53.0929 19.6564 53.0929 20.5835C53.0929 23.1218 52.6159 25.975 51.1937 29.5394L43.552 51.6096C50.9867 47.2802 55.9822 39.2244 55.9822 29.9984C55.9822 25.651 54.8751 21.5646 52.9219 18.0092Z" fill="white"/>
</svg>
