<svg width="53" height="60" viewBox="0 0 53 60" fill="none" xmlns="http://www.w3.org/2000/svg">
<path d="M-0.00335375 0.0105726C-0.00335375 0.243169 -0.0139353 0.401758 -0.00335375 0.560346C0.398743 4.95854 0.80084 9.35673 1.19236 13.7655C1.74259 20.0033 2.28225 26.2411 2.83249 32.4684C3.4568 39.4674 4.09169 46.4559 4.69483 53.4549C4.73716 53.9624 4.91704 54.1844 5.39321 54.3113C12.1654 56.1721 18.9164 58.0434 25.6885 59.8936C26.1435 60.0205 26.6938 60.0416 27.1488 59.9148C33.9421 58.054 40.7248 56.1615 47.5182 54.2902C48.0366 54.1421 48.2165 53.9095 48.2589 53.3809C48.4705 50.7378 48.7244 48.0841 48.9572 45.4409C49.3488 41.0639 49.7297 36.6868 50.1212 32.3098C50.5762 27.1715 51.0418 22.0438 51.4968 16.9055C51.8354 13.0783 52.1952 9.26157 52.5338 5.4343C52.6925 3.63696 52.8301 1.83963 52.9782 0H-0.00335375V0.0105726ZM42.7565 15.2774C42.4073 19.1469 42.0581 23.0271 41.7089 26.8966C41.3068 31.3477 40.9047 35.7987 40.5026 40.2392C40.3862 41.5185 40.2169 42.7978 40.1852 44.0876C40.164 44.7748 39.8677 44.9546 39.2963 45.1132C35.2119 46.2127 31.138 47.344 27.0641 48.4647C26.8842 48.5175 26.7149 48.581 26.535 48.6338C26.4716 48.6021 26.4081 48.581 26.334 48.5492C21.9744 47.3651 17.6148 46.1704 13.2553 44.9651C13.0754 44.9123 12.8426 44.6268 12.8214 44.4259C12.5146 41.1273 12.2394 37.8287 11.9432 34.4666H18.5989C18.7153 35.7882 18.8423 37.1309 18.9481 38.4842C19.0433 39.7317 19.0328 39.7317 20.2073 40.0489C22.313 40.6092 24.4293 41.159 26.535 41.7088L26.5139 41.6559C28.8207 41.0427 31.1274 40.4401 33.4342 39.7846C33.6458 39.7212 33.8892 39.3828 33.9209 39.1502C34.0585 38.1353 34.1326 37.1097 34.2172 36.0948C34.3548 34.456 34.4923 32.8173 34.6405 31.1045H26.5139L26.535 31.0622C26.4821 31.0622 26.4186 31.0622 26.3657 31.0622H11.6363C11.4352 28.8737 11.2448 26.7063 11.0437 24.4755H26.3763C26.4292 24.4755 26.4927 24.4755 26.5456 24.4755L26.5245 24.4332H35.233C35.4341 22.1601 35.6351 19.9399 35.8362 17.6773H26.5139L26.535 17.635C26.4821 17.635 26.4186 17.635 26.3657 17.635C21.1491 17.6456 15.9324 17.6456 10.7157 17.6562C10.6416 17.6562 10.5676 17.6245 10.43 17.5822C10.2395 15.4254 10.0385 13.2686 9.84802 11.0483H26.3657C26.4186 11.0483 26.4821 11.0483 26.535 11.0483L26.5139 11.006H43.1057C42.9893 12.4862 42.8729 13.8818 42.7565 15.2774Z" fill="white"/>
</svg>
