<svg width="61" height="60" viewBox="0 0 61 60" fill="none" xmlns="http://www.w3.org/2000/svg">
<path d="M0.667969 0C20.6815 0 40.6545 0 60.668 0C60.668 20.0135 60.668 40.027 60.668 60C40.695 60 20.6815 60 0.667969 60C0.667969 39.946 0.667969 19.973 0.667969 0ZM54.3479 31.7623C53.1325 29.5746 51.4715 28.0756 49.0812 27.549C47.3796 27.1438 45.6781 27.1438 43.9765 27.5084C38.4667 28.6428 36.117 35.287 39.6821 39.7029C40.938 41.2424 42.5991 42.1742 44.3412 42.9845C45.8807 43.7137 47.4607 44.4024 49.0002 45.1722C50.0535 45.6988 50.4992 46.6712 50.3776 47.846C50.2561 49.0209 49.4458 49.6691 48.433 50.0338C46.1642 50.844 43.5309 50.1148 41.9914 48.2107C41.6673 47.8055 41.3432 47.3599 41.0191 46.9142C39.4796 47.8055 37.9806 48.6563 36.4816 49.5476C37.4134 51.3707 38.7098 52.8292 40.4924 53.8015C43.5309 55.4625 46.7314 55.7056 50.013 54.8953C52.1602 54.3687 53.9833 53.2748 55.1177 51.2897C57.2243 47.5219 56.0089 42.8224 52.2817 40.5132C50.6207 39.5003 48.7571 38.8116 47.015 37.9203C46.1642 37.4747 45.273 37.0695 44.5437 36.5024C43.2473 35.449 43.4904 33.3423 44.9489 32.5321C46.3668 31.7218 48.352 32.208 49.4458 33.6259C49.6889 33.9095 49.8509 34.2336 50.094 34.5577C51.4715 33.6259 52.8894 32.6941 54.3479 31.7623ZM16.4681 50.1553C17.2784 51.8974 18.4532 53.2748 20.1143 54.1661C22.2615 55.341 24.6112 55.5435 27.0015 55.1789C29.1487 54.8548 30.9313 53.8825 32.1062 51.9379C33.0785 50.3173 33.3621 48.5348 33.3621 46.6306C33.3621 40.4726 33.3621 34.3147 33.3621 28.1566C33.3621 27.9946 33.3621 27.792 33.3621 27.5895C31.458 27.5895 29.6349 27.5895 27.7308 27.5895C27.7308 27.8325 27.7308 28.0351 27.7308 28.2782C27.7308 34.3552 27.7308 40.3916 27.7308 46.4686C27.7308 47.0358 27.6902 47.6435 27.6092 48.2107C27.4472 49.1425 26.961 49.8312 26.0292 50.1148C24.2871 50.6415 22.8692 50.1148 21.8564 48.6158C21.6133 48.2107 21.3702 47.8055 21.0866 47.4004C19.5066 48.3322 18.0076 49.2235 16.4681 50.1553Z" fill="white"/>
</svg>
