<svg width="66" height="60" viewBox="0 0 66 60" fill="none" xmlns="http://www.w3.org/2000/svg">
<g clip-path="url(#clip0_230_884)">
<path fill-rule="evenodd" clip-rule="evenodd" d="M63.7143 15.7639L58.0337 23.7083L52.3532 15.7639H55.4504C55.2143 9.86111 50.3393 5.13889 44.381 5.13889C39.3532 5.13889 35.0893 8.51389 33.7421 13.1111C32.1032 12.5833 30.4087 12.25 28.6865 12.0972C28.881 11.3611 29.131 10.625 29.4365 9.91666C30.256 7.98611 31.4226 6.25 32.9087 4.76389C34.3949 3.27778 36.131 2.09722 38.0615 1.29167C40.0615 0.430555 42.1865 0 44.381 0C46.5754 0 48.7004 0.430555 50.7004 1.27778C52.631 2.09722 54.3671 3.26389 55.8532 4.75C57.3393 6.23611 58.506 7.97222 59.3254 9.90277C60.1171 11.7639 60.5476 13.7361 60.5893 15.7639H63.7143Z" fill="white"/>
<path fill-rule="evenodd" clip-rule="evenodd" d="M55.7699 60.0001V56.5835H36.1865C36.3254 56.514 36.4643 56.4585 36.6032 56.389C38.7282 55.3751 40.6865 54.0557 42.4365 52.4446C42.6726 52.2224 42.8949 52.014 43.1032 51.8057C43.3393 51.5696 43.5893 51.3196 43.8254 51.0557C44.1032 50.7501 44.381 50.4307 44.631 50.1112H55.7699V46.6946L65.0754 53.3474L55.7699 60.0001Z" fill="white"/>
<path fill-rule="evenodd" clip-rule="evenodd" d="M48.5477 35.3195C48.5477 38.2778 47.9644 41.1528 46.8255 43.8611C45.8533 46.1667 44.4922 48.2778 42.7977 50.125C42.5755 50.3611 42.3533 50.5972 42.1311 50.8334C41.9227 51.0417 41.7144 51.2361 41.5061 51.4445C39.8672 52.9584 38.0338 54.1945 36.0338 55.1528C35.7561 55.2917 35.4644 55.4167 35.1727 55.5417C35.1588 55.5417 35.1588 55.5556 35.1449 55.5556C33.4783 56.2639 31.6866 56.6111 29.8672 56.6111H0.978271V50.1528H27.7977C35.9088 50.1528 42.5616 43.6667 42.6727 35.5556C42.6727 35.4861 42.6727 35.4167 42.6727 35.3472C42.6727 26.4861 35.4783 19.2917 26.6172 19.2917C17.7561 19.2639 10.5616 26.4445 10.5616 35.3195H14.2838L7.63105 44.625L0.978271 35.3195H4.70049C4.70049 32.3611 5.28383 29.4861 6.42272 26.7778C7.53383 24.1667 9.10327 21.8195 11.1172 19.8056C13.1311 17.7917 15.4783 16.2084 18.0894 15.1111C20.7977 13.9722 23.6727 13.3889 26.6311 13.3889C27.2283 13.3889 27.8116 13.4167 28.3949 13.4584C30.1172 13.5972 31.7977 13.9306 33.4366 14.4722C34.0199 14.6667 34.5894 14.875 35.1588 15.125C37.7699 16.2361 40.1172 17.8056 42.1311 19.8195C44.1449 21.8334 45.7283 24.1806 46.8255 26.7917C47.9644 29.4861 48.5477 32.3611 48.5477 35.3195Z" fill="white"/>
</g>
<defs>
<clipPath id="clip0_230_884">
<rect width="64.1111" height="60" fill="white" transform="translate(0.978271)"/>
</clipPath>
</defs>
</svg>
