<svg width="61" height="60" viewBox="0 0 61 60" fill="none" xmlns="http://www.w3.org/2000/svg">
<path d="M59.9802 4.7749C59.5436 2.48295 57.7701 0.627558 55.5054 0.136426C55.3963 0.109141 55.2872 0.109141 55.1507 0.0818554C55.1234 0.0818554 55.0962 0.0272851 55.0689 0H5.02796C5.00068 0.0272851 4.97339 0.0818554 4.91882 0.0818554C2.65416 0.463847 0.744198 2.26467 0.225781 4.55662C0.198496 4.63847 0.143926 4.74761 0.0893555 4.85675V55.0341C0.116641 55.0887 0.171211 55.116 0.171211 55.1705C0.716913 57.6808 2.24488 59.236 4.72783 59.8636C4.80968 59.8909 4.86425 59.9454 4.91882 60H55.1507C55.2053 59.9727 55.2326 59.9181 55.2872 59.8909C57.7701 59.3179 59.2981 57.8172 59.9256 55.3342C59.9529 55.2524 59.9256 55.1433 59.9529 55.0614C59.9529 55.0341 60.0075 55.0068 60.0348 54.9795V4.93861C60.0348 4.88404 59.9802 4.85675 59.9802 4.7749ZM34.8779 33.2606H34.5777C32.3131 33.2606 30.0211 33.2606 27.7565 33.2606C27.6473 33.2606 27.5382 33.2606 27.429 33.2606C27.429 33.2879 27.4018 33.2879 27.4018 33.3151C27.4018 33.4243 27.4018 33.5334 27.4018 33.6426V54.6794H21.4263V33.2879H13.9229V28.513H34.8506V33.2606H34.8779ZM55.0143 47.5307C54.9597 48.4584 54.8233 49.3588 54.4413 50.2319C54.3322 50.5048 54.2503 50.7503 54.1139 51.0232C53.6228 52.06 52.8042 52.7967 51.8492 53.397C50.7578 54.0791 49.5573 54.4611 48.3022 54.7067C46.9106 54.9795 45.5191 55.0614 44.1003 55.0068C43.4181 54.9795 42.736 54.9795 42.0539 54.8977C40.444 54.7067 38.8615 54.352 37.3881 53.6426C37.3063 53.6153 37.1971 53.4789 37.1971 53.397C37.1971 51.6235 37.1971 49.8499 37.1971 48.0764C37.1971 48.0491 37.1971 48.0218 37.1971 47.9673C37.6337 48.2674 38.0702 48.5675 38.5068 48.8131C39.5709 49.4407 40.7442 49.8772 41.9447 50.1501C42.9816 50.3956 44.0184 50.4229 45.0552 50.3684C45.8465 50.3411 46.6378 50.1501 47.3472 49.7954C47.9747 49.4679 48.4932 49.0314 48.6296 48.2947C48.766 47.6398 48.7114 46.985 48.3294 46.412C47.7837 45.5935 47.0198 45.075 46.1739 44.6385C45.2189 44.1746 44.264 43.7654 43.2817 43.3288C41.8356 42.6739 40.4168 41.9645 39.2435 40.8731C38.2885 39.9727 37.5791 38.9086 37.2517 37.6262C37.0607 36.8622 37.0061 36.0982 37.0334 35.3342C37.0607 33.4516 37.7428 31.8417 39.0798 30.5048C40.1712 29.4134 41.5082 28.7585 42.9816 28.3765C43.9911 28.131 45.0007 27.94 46.0375 27.9127C46.7742 27.9127 47.5109 27.8308 48.2203 27.8581C49.339 27.8854 50.4304 27.94 51.5218 28.2128C52.2312 28.4038 52.9679 28.5948 53.6773 28.7585C53.8138 28.7858 53.8683 28.8677 53.8683 29.0314C53.8683 30.7231 53.8683 32.442 53.8683 34.1337C53.8683 34.1883 53.8683 34.2428 53.841 34.3247C53.6228 34.1883 53.4318 34.0791 53.2408 33.97C52.3676 33.4789 51.4399 33.1514 50.485 32.9059C49.4209 32.6603 48.3567 32.4966 47.2653 32.5239C46.5286 32.5512 45.7646 32.6603 45.0825 32.9059C44.2367 33.206 43.5546 33.6971 43.2544 34.5975C43.0089 35.307 43.1998 35.9072 43.6364 36.4802C44.1821 37.1896 44.9188 37.6808 45.7101 38.0628C46.7742 38.5812 47.8656 39.0177 48.9024 39.5089C50.103 40.0819 51.3035 40.6548 52.3131 41.5007C53.1862 42.2374 53.9775 43.0559 54.414 44.1473C54.6596 44.8022 54.8779 45.4843 54.8779 46.221C54.987 46.6576 55.0416 47.0941 55.0143 47.5307Z" fill="white"/>
</svg>
