<svg fill="none" height="100" viewBox="0 0 60 60" width="100" xmlns="http://www.w3.org/2000/svg" xmlns:xlink="http://www.w3.org/1999/xlink">
  <clipPath id="a">
    <path d="m2 2h56v55.943h-56z"/>
  </clipPath>
  <g clip-path="url(#a)" fill="#fff">
    <path d="m48.507 25.5335-17.9326 10.2146c-.3227.1898-.7215.1898-1.0537 0l-17.9326-10.2146c-.7024-.3988-.7024-1.4145 0-1.8227l17.9326-10.2146c.3227-.1899.7215-.1899 1.0537 0l17.9326 10.2146c.7024.3987.7024 1.4144 0 1.8227z"/>
    <path d="m45.4027 28.97v8.4204c0 .3797-.1994.7215-.5316.9113l-14.2967 8.1451c-.3228.1899-.7215.1899-1.0537 0l-14.2967-8.1451c-.3323-.1898-.5316-.5316-.5316-.9113v-8.4204l7.9267 4.5092 6.9016 3.9397c.3227.1898.7214.1898 1.0537 0l6.9015-3.9397z"/>
    <path d="m53.7566 15.072.4936-.3418c.5981-.4177.5221-1.3195-.1329-1.6328l-3.9302-1.8701c-.6645-.3133-1.4144.2088-1.3575.9398l.3798 4.3384c.0664.7214.8923 1.1106 1.4904.693l.7025-.4842c6.2465 10.0627 4.5662 23.467-4.1675 31.6311-8.5913 8.0312-21.8342 9.009-31.4887 2.3258-.6456-.4461-1.5379-.2848-1.9841.3608-.4462.6455-.2848 1.5379.3607 1.984 4.7751 3.3037 10.3286 4.927 15.8726 4.927 6.9394 0 13.8599-2.5442 19.1856-7.5186 9.7494-9.1229 11.6291-24.1315 4.5757-35.3524z"/>
    <path d="m45.9723 6.92698c-10.7462-7.44262-25.489-6.350909-35.0581 2.59162-9.996291 9.3507-11.790494 24.2929-4.33838 35.7037l-.693.4746c-.59807.4177-.52213 1.3196.1329 1.6329l3.93016 1.8701c.66452.3133 1.41452-.2088 1.35752-.9398l-.3797-4.3384c-.0665-.7215-.8924-1.1107-1.49045-.693l-.51263.3608c-6.62621-10.2431-5.02187-23.619 3.93968-31.9919 8.5913-8.03119 21.8342-9.01848 31.4887-2.32582.6455.44618 1.5379.2848 1.9841-.36074.4461-.64553.2848-1.53789-.3608-1.98406z"/>
  </g>
</svg>
