<svg height="276" overflow="hidden" width="285" xmlns="http://www.w3.org/2000/svg" xmlns:xlink="http://www.w3.org/1999/xlink"><clipPath id="a"><path d="m0 0h285v276h-285z"/></clipPath><clipPath id="b"><path d="m0 0h285v276h-285z"/></clipPath><clipPath id="c"><path d="m0 0h285v275h-285z"/></clipPath><clipPath id="d"><path d="m0 0h285v275h-285z"/></clipPath><g clip-path="url(#a)"><g clip-path="url(#b)"><g clip-path="url(#c)"><g clip-path="url(#d)"><path d="m77.227 204.026h-56.0301c-.5611 0-1.0173-.456-1.0173-1.02v-133.2886c0-.5639.4562-1.0202 1.0173-1.0202h75.1838c.5639 0 1.0202.4563 1.0202 1.0202v76.4226h5.3531v-91.7138c0-6.1948-5.0216-11.2134-11.2163-11.2134h-2.5617c-.1616-.3486-.5101-.5951-.921-.5951h-9.7682c-.4109 0-.7594.2465-.921.5951h-51.5781c-6.1947 0-11.2162 5.0186-11.2162 11.2134v14.4864c-.3486.1644-.5923.5101-.5923.921v3.7066c0 .4109.2437.7595.5923.9182v4.3102c-.3486.1615-.5923.5101-.5923.921v3.7066c0 .4081.2437.7566.5923.9181v133.6457c0 6.194 5.0215 11.213 11.2162 11.213h51.4393zm-18.9015-153.5927c.9408 0 1.6974.7595 1.6974 1.6975 0 .9408-.7594 1.7003-1.6974 1.7003s-1.7003-.7623-1.7003-1.7003.7595-1.6975 1.7003-1.6975zm-5.9482 7.9857h12.7436c.564 0 1.0174.4562 1.0174 1.0173s-.4563 1.0174-1.0174 1.0174h-12.7436c-.5611 0-1.0202-.4563-1.0202-1.0174 0-.5639.4591-1.0173 1.0202-1.0173zm6.9655 166.5c-4.8713 0-8.833-3.958-8.833-8.83 0-4.871 3.9617-8.833 8.833-8.833 4.8742 0 8.8358 3.962 8.8358 8.833 0 4.872-3.9616 8.83-8.8358 8.83z" transform="scale(1.00571 1)"/><path d="m59.3853 209.209c-3.7463 0-6.7955 3.049-6.7955 6.792 0 3.75 3.0492 6.793 6.7955 6.793 3.7491 0 6.7955-3.043 6.7955-6.793 0-3.743-3.0492-6.792-6.7955-6.792z" transform="scale(1.00571 1)"/><path d="m95.4059 188.82c-3.7463 0-6.7955 3.049-6.7955 6.792 0 3.749 3.0492 6.799 6.7955 6.799s6.7951-3.05 6.7951-6.799c-.002-3.743-3.0488-6.792-6.7951-6.792z" transform="scale(1.00571 1)"/><path d="m268.282 213.644v-51.584c0-6.198-5.015-11.213-11.216-11.213h-14.486c-.156-.352-.507-.596-.918-.596h-3.707c-.408 0-.759.244-.912.596h-4.314c-.161-.352-.512-.596-.923-.596h-3.701c-.414 0-.76.244-.918.596h-133.6514c-6.1947 0-11.2134 5.018-11.2134 11.213v65.753c0 6.197 5.0187 11.213 11.2134 11.213h163.5304c6.201 0 11.216-5.018 11.216-11.213v-2.562c.349-.161.596-.507.596-.921v-9.768c0-.414-.247-.76-.596-.918zm-172.8761-9.196c-4.8713 0-8.8358-3.959-8.8358-8.836 0-4.868 3.9645-8.836 8.8358-8.836 4.8711 0 8.8361 3.968 8.8361 8.836-.003 4.877-3.965 8.836-8.8361 8.836zm147.3951 28.208c0 .564-.462 1.017-1.023 1.017h-133.291c-.564 0-1.018-.453-1.018-1.017v-75.187c0-.564.457-1.017 1.018-1.017h133.288c.561 0 1.023.453 1.023 1.017v75.187zm10.275-31.263c0 .558-.456 1.018-1.017 1.018s-1.017-.46-1.017-1.018v-12.743c0-.564.456-1.021 1.017-1.021s1.017.457 1.017 1.021zm6.283-5.101c-.935 0-1.701-.756-1.701-1.694s.766-1.701 1.701-1.701c.941 0 1.703.763 1.703 1.701s-.762 1.694-1.703 1.694z" transform="scale(1.00571 1)"/><path d="m125.77 76.7736-5.18 4.7948c27.159 2.7233 40.084 18.5526 46.16 31.6166 6.761 14.552 6.639 28.477 6.639 29.064l-.022 1.502h-4.075l.022-1.556c.012-.13.088-13.702-6.322-27.414-8.048-17.1959-22.268-26.9641-42.294-29.0979l4.545 4.9025-5.866-.2239-6.642-7.1695 7.169-6.6453z" transform="scale(1.00571 1)"/><g font-family="Helvetica Neue,Helvetica Neue_MSFontService,sans-serif" font-size="5" font-weight="700"><text transform="matrix(2.85 0 0 2.83381 0 326)">Created by Kelig Le Luron</text><text transform="matrix(2.85 0 0 2.83381 0 340)">from the Noun Project</text></g></g></g></g></g></svg>